<svg width="45" height="44" viewBox="0 0 45 44" fill="none" xmlns="http://www.w3.org/2000/svg">
<path opacity="0.5" d="M17.6875 24.75H6.6875C5.16872 24.75 3.9375 25.9812 3.9375 27.5V38.5C3.9375 40.0188 5.16872 41.25 6.6875 41.25H17.6875C19.2063 41.25 20.4375 40.0188 20.4375 38.5V27.5C20.4375 25.9812 19.2063 24.75 17.6875 24.75Z" fill="#6EE7B7"/>
<path d="M15.625 42.6264H8.0625C7.95577 42.6264 7.8505 42.6015 7.75504 42.5538C7.65958 42.5061 7.57654 42.4368 7.5125 42.3514C7.44846 42.266 7.40518 42.1669 7.38609 42.0619C7.367 41.9568 7.37262 41.8488 7.4025 41.7464L7.69813 40.7151C8.31614 38.5507 9.50628 36.5929 11.1433 35.0479C12.7802 33.5028 14.8035 32.4277 17 31.9357C17.1276 31.9097 17.2599 31.9205 17.3816 31.9667C17.5033 32.013 17.6094 32.0928 17.6875 32.197C17.7687 32.3045 17.8166 32.4334 17.8252 32.5679C17.8337 32.7023 17.8026 32.8363 17.7356 32.9532L15.8656 36.2257L17.3919 37.2432C17.5437 37.343 17.6499 37.4987 17.6873 37.6765C17.7246 37.8543 17.6901 38.0396 17.5913 38.192L15.9894 40.6189L16.3125 41.7601C16.3403 41.8621 16.3442 41.9691 16.324 42.0728C16.3037 42.1766 16.2598 42.2742 16.1956 42.3582C16.1288 42.4452 16.0421 42.5149 15.9429 42.5616C15.8436 42.6082 15.7346 42.6304 15.625 42.6264ZM8.97687 41.2514H14.7244L14.5662 40.6807C14.543 40.5867 14.5389 40.4889 14.5543 40.3932C14.5697 40.2975 14.6041 40.2059 14.6556 40.1239L16.0306 38.0064L14.5388 37.0095C14.3928 36.9136 14.2888 36.7656 14.2479 36.5958C14.2071 36.426 14.2324 36.247 14.3188 36.0951L15.6456 33.7782C14.05 34.4049 12.6203 35.3908 11.4674 36.6594C10.3144 37.928 9.46927 39.4452 8.9975 41.0932L8.97687 41.2514Z" fill="#FAFAFA"/>
<path d="M22.5023 42.6254C22.3471 42.6307 22.1946 42.5833 22.0698 42.4909C21.945 42.3986 21.8551 42.2666 21.8148 42.1166L19.7523 34.2723C19.7094 34.1199 19.7204 33.9574 19.7834 33.8122C19.8464 33.667 19.9576 33.548 20.0982 33.4753C20.2388 33.4026 20.4002 33.3806 20.5551 33.4131C20.71 33.4455 20.849 33.5305 20.9485 33.6535C21.1422 33.8776 21.3818 34.0574 21.6511 34.1806C21.9204 34.3038 22.213 34.3676 22.5092 34.3676C22.8053 34.3676 23.098 34.3038 23.3673 34.1806C23.6366 34.0574 23.8762 33.8776 24.0698 33.6535C24.1699 33.5326 24.3084 33.4497 24.4623 33.4184C24.6161 33.3871 24.776 33.4094 24.9154 33.4816C25.053 33.5556 25.1614 33.6741 25.2226 33.8178C25.2839 33.9615 25.2943 34.1218 25.2523 34.2723L23.1898 42.1166C23.1495 42.2666 23.0596 42.3986 22.9348 42.4909C22.8099 42.5833 22.6575 42.6307 22.5023 42.6254ZM21.526 35.6129L22.5023 39.2704L23.4785 35.6129C22.84 35.7916 22.1646 35.7916 21.526 35.6129Z" fill="#FAFAFA"/>
<path d="M36.9347 42.6243H29.3722C29.2672 42.6241 29.1636 42.5998 29.0695 42.5533C28.9753 42.5068 28.8931 42.4394 28.829 42.3562C28.7649 42.2722 28.721 42.1745 28.7007 42.0708C28.6804 41.9671 28.6844 41.8601 28.7122 41.7581L29.0216 40.6168L27.4197 38.19C27.3208 38.0376 27.2863 37.8522 27.3237 37.6745C27.361 37.4967 27.4672 37.3409 27.619 37.2412L29.1453 36.2237L27.3097 32.9512C27.2427 32.8343 27.2116 32.7003 27.2201 32.5659C27.2287 32.4314 27.2766 32.3024 27.3578 32.195C27.4367 32.092 27.5432 32.0135 27.6648 31.9685C27.7865 31.9235 27.9184 31.9138 28.0453 31.9406C29.7716 32.3348 31.3951 33.0892 32.8097 34.1543C34.993 35.7871 36.576 38.0951 37.3128 40.72L37.6222 41.7443C37.6521 41.8468 37.6577 41.9548 37.6386 42.0598C37.6195 42.1648 37.5762 42.264 37.5122 42.3493C37.4454 42.4385 37.358 42.5102 37.2574 42.5581C37.1568 42.606 37.046 42.6287 36.9347 42.6243ZM30.2728 41.2493H36.0203L35.979 41.0981C35.3218 38.7625 33.9131 36.7086 31.9709 35.2543C31.1609 34.6459 30.273 34.1488 29.3309 33.7762L30.6578 36.0931C30.7442 36.2449 30.7695 36.4239 30.7286 36.5938C30.6877 36.7636 30.5838 36.9115 30.4378 37.0075L28.9459 38.0043L30.3209 40.1218C30.3724 40.2039 30.4069 40.2955 30.4222 40.3912C30.4376 40.4869 30.4335 40.5846 30.4103 40.6787L30.2728 41.2493Z" fill="#FAFAFA"/>
<path d="M22.5013 35.7518C22.0025 35.7511 21.5099 35.6419 21.0576 35.4318C20.6053 35.2217 20.2041 34.9156 19.8819 34.5349C19.8189 34.458 19.7721 34.3691 19.7444 34.2736L19.0569 31.8055C19.0524 31.7459 19.0547 31.6859 19.0638 31.6268V27.7905C19.0638 27.6838 19.0886 27.5785 19.1364 27.4831C19.1841 27.3876 19.2534 27.3046 19.3388 27.2405C19.425 27.1754 19.5253 27.1315 19.6316 27.1124C19.7379 27.0933 19.8472 27.0995 19.9507 27.1305C21.615 27.6261 23.3876 27.6261 25.0519 27.1305C25.1554 27.0995 25.2647 27.0933 25.371 27.1124C25.4773 27.1315 25.5776 27.1754 25.6638 27.2405C25.7492 27.3046 25.8185 27.3876 25.8662 27.4831C25.9139 27.5785 25.9388 27.6838 25.9388 27.7905V31.6268C25.9455 31.6862 25.9455 31.7461 25.9388 31.8055L25.2513 34.2461C25.2288 34.3519 25.1817 34.4508 25.1138 34.5349C24.7923 34.9147 24.3923 35.2202 23.9412 35.4303C23.4902 35.6404 22.9989 35.7501 22.5013 35.7518ZM21.03 33.758C21.4237 34.139 21.95 34.352 22.4978 34.352C23.0457 34.352 23.572 34.139 23.9657 33.758L24.5638 31.5374V28.6705C23.2025 28.9455 21.8 28.9455 20.4388 28.6705V31.5374L21.03 33.758Z" fill="#FAFAFA"/>
<path d="M14.9375 15.8125H11.5C11.3177 15.8125 11.1428 15.7401 11.0139 15.6111C10.8849 15.4822 10.8125 15.3073 10.8125 15.125V11.6875C10.8125 11.5052 10.8849 11.3303 11.0139 11.2014C11.1428 11.0724 11.3177 11 11.5 11H20.4375C20.5863 11 20.731 11.0482 20.85 11.1375C21.1361 11.3555 21.4629 11.5141 21.8112 11.6038C22.1595 11.6936 22.5223 11.7127 22.8781 11.66C23.0271 11.6367 23.1795 11.6631 23.312 11.7349C23.4445 11.8068 23.5497 11.9202 23.6115 12.0577C23.6732 12.1952 23.688 12.3492 23.6536 12.496C23.6193 12.6428 23.5376 12.7742 23.4213 12.87C21.0044 14.7764 18.0157 15.813 14.9375 15.8125ZM12.1875 14.4375H14.9375C17.0885 14.4366 19.2022 13.875 21.07 12.8081C20.7695 12.6985 20.4832 12.5531 20.2175 12.375H12.1875V14.4375Z" fill="#FAFAFA"/>
<path d="M33.5034 15.8125C32.5101 15.8128 31.5265 15.6175 30.6088 15.2377C29.691 14.8578 28.8571 14.3009 28.1546 13.5988C27.6912 13.1272 27.2872 12.6008 26.9515 12.0313C26.8911 11.9267 26.8594 11.8082 26.8594 11.6875C26.8594 11.5668 26.8911 11.4483 26.9515 11.3438C27.0121 11.2388 27.0993 11.1518 27.2043 11.0914C27.3093 11.0311 27.4285 10.9995 27.5496 11H33.5034C33.6857 11 33.8606 11.0724 33.9895 11.2014C34.1184 11.3303 34.1909 11.5052 34.1909 11.6875V15.125C34.1909 15.3073 34.1184 15.4822 33.9895 15.6111C33.8606 15.7401 33.6857 15.8125 33.5034 15.8125ZM28.8902 12.375C28.9659 12.4575 29.0484 12.5469 29.1309 12.6225C29.9848 13.485 31.0761 14.0738 32.2659 14.3138C32.4446 14.3481 32.6302 14.3756 32.8159 14.3963V12.375H28.8902Z" fill="#FAFAFA"/>
<path d="M22.5 28.875C22.2525 28.875 22.0119 28.875 21.7713 28.875H21.6681C21.4344 28.875 21.2075 28.875 20.9806 28.8063C20.7538 28.7375 20.52 28.7306 20.2931 28.6825H20.245L19.6744 28.5313C19.3856 28.4488 19.1106 28.3594 18.8494 28.2563C18.7366 28.22 18.6264 28.1763 18.5194 28.1256C18.2339 27.9899 17.9562 27.8384 17.6875 27.6719C15.4883 26.5178 13.7794 24.6088 12.875 22.2956L12.7856 22.0688C12.7444 21.9588 12.71 21.8419 12.6756 21.7319V21.6425L12.6344 21.5188C12.5587 21.2781 12.4969 21.0375 12.4419 20.79C12.3869 20.5425 12.3456 20.3156 12.3113 20.0613C12.231 19.5657 12.1896 19.0646 12.1875 18.5625V15.125C12.1875 14.9427 12.2599 14.7678 12.3889 14.6389C12.5178 14.5099 12.6927 14.4375 12.875 14.4375H14.9375C17.7049 14.4355 20.3917 13.506 22.5687 11.7975C22.6639 11.7165 22.7813 11.6661 22.9056 11.6531C23.3588 11.5946 23.7882 11.4166 24.15 11.1375C24.269 11.0483 24.4137 11 24.5625 11H27.5463C27.6674 10.9995 27.7865 11.0311 27.8916 11.0914C27.9966 11.1518 28.0838 11.2388 28.1444 11.3438C28.4122 11.8129 28.743 12.2431 29.1275 12.6225C29.9814 13.485 31.0728 14.0738 32.2625 14.3138C32.4201 14.3459 32.5615 14.4323 32.662 14.5579C32.7625 14.6835 32.8157 14.8404 32.8125 15.0013V18.5625C32.8127 19.5279 32.6761 20.4885 32.4069 21.4156C32.2757 21.8864 32.1079 22.3461 31.905 22.7906C31.8363 22.9488 31.7469 23.1275 31.6575 23.2994C31.5681 23.4713 31.4581 23.6706 31.3481 23.8631C31.2381 24.0556 31.1488 24.1794 31.0456 24.3306L30.8187 24.6469C30.7921 24.6963 30.7598 24.7424 30.7225 24.7844C30.64 24.8944 30.5506 24.9975 30.4681 25.1006C30.0398 25.6321 29.5558 26.1161 29.0244 26.5444L28.8113 26.7163L28.7356 26.7713C28.4516 26.9894 28.1555 27.1914 27.8487 27.3763C27.7387 27.4519 27.615 27.5138 27.4981 27.5825C27.3813 27.6513 27.0925 27.8025 26.8863 27.8988C26.68 27.995 26.6319 28.0156 26.4875 28.0706C26.1063 28.2309 25.7161 28.3686 25.3187 28.4831L24.7412 28.6344H24.6931C24.4662 28.6825 24.2394 28.7238 24.0056 28.7581C23.7779 28.7934 23.5484 28.8163 23.3181 28.8269C23.276 28.8466 23.2323 28.8627 23.1875 28.875C22.9585 28.8875 22.729 28.8875 22.5 28.875ZM21.8606 27.5H21.9019C22.3019 27.5413 22.705 27.5413 23.105 27.5H23.1875C23.3855 27.4899 23.5829 27.4693 23.7788 27.4381C24.0056 27.4381 24.2187 27.3694 24.425 27.3213H24.4663L24.9269 27.2044C25.2773 27.1026 25.6216 26.9809 25.9581 26.84L26.2881 26.6956L26.8106 26.4275L27.1131 26.2488C27.376 26.0898 27.6307 25.9177 27.8762 25.7331L27.9587 25.6644C28.012 25.6293 28.0626 25.5902 28.11 25.5475C28.5821 25.1648 29.013 24.734 29.3956 24.2619C29.4735 24.174 29.547 24.0822 29.6156 23.9869L29.6844 23.9044C29.7669 23.7944 29.815 23.7188 29.87 23.6363C29.925 23.5538 30.0694 23.3338 30.1519 23.1963C30.2483 23.0411 30.3355 22.8804 30.4131 22.715C30.4956 22.5638 30.5713 22.4263 30.6331 22.2819C30.8091 21.8922 30.9562 21.49 31.0731 21.0788C31.3149 20.2619 31.4376 19.4144 31.4375 18.5625V15.5238C30.1942 15.1767 29.062 14.5135 28.1513 13.5988C27.7804 13.2257 27.4487 12.8156 27.1612 12.375H24.7825C24.3271 12.6786 23.8149 12.8868 23.2769 12.9869C20.882 14.8174 17.9519 15.8102 14.9375 15.8125H13.5625V18.5625C13.5628 18.9974 13.5949 19.4317 13.6587 19.8619C13.6931 20.0819 13.7275 20.295 13.7756 20.5013C13.8146 20.7063 13.8674 20.9084 13.9338 21.1063L13.9681 21.23V21.3194C14.0025 21.4088 14.03 21.505 14.0644 21.5944L14.1331 21.7731C14.9028 23.7793 16.3664 25.4429 18.2581 26.4619C18.485 26.5788 18.7188 26.6956 18.9456 26.7988L19.255 26.9156C19.4959 27.0104 19.7414 27.093 19.9906 27.1631C20.135 27.2044 20.2863 27.2456 20.4513 27.28H20.4856C20.6919 27.3281 20.905 27.3625 21.1181 27.3969C21.3313 27.4313 21.5238 27.445 21.7231 27.4588L21.8606 27.5Z" fill="#FAFAFA"/>
<path d="M13.2737 22H12.5312C11.529 21.9982 10.5682 21.5992 9.85951 20.8905C9.15078 20.1818 8.75182 19.221 8.75 18.2188C8.75182 17.2165 9.15078 16.2557 9.85951 15.547C10.5682 14.8383 11.529 14.4393 12.5312 14.4375H12.875C13.0573 14.4375 13.2322 14.5099 13.3611 14.6389C13.4901 14.7678 13.5625 14.9427 13.5625 15.125V18.5625C13.5605 19.4263 13.6856 20.2857 13.9338 21.1131C13.9648 21.2166 13.971 21.3259 13.9519 21.4322C13.9328 21.5385 13.8889 21.6388 13.8237 21.725C13.7597 21.8104 13.6767 21.8797 13.5812 21.9274C13.4857 21.9751 13.3805 22 13.2737 22ZM12.1875 15.8125C11.6648 15.8801 11.1802 16.1224 10.8125 16.5C10.5902 16.7241 10.4149 16.9904 10.2968 17.2832C10.1788 17.576 10.1204 17.8894 10.125 18.205C10.1205 18.8224 10.3534 19.418 10.7757 19.8684C11.198 20.3189 11.7773 20.5897 12.3937 20.625C12.2553 19.9463 12.1862 19.2552 12.1875 18.5625V15.8125Z" fill="#FAFAFA"/>
<path d="M32.4705 22H31.728C31.6213 22 31.516 21.9751 31.4206 21.9274C31.3251 21.8797 31.2421 21.8104 31.178 21.725C31.1129 21.6388 31.069 21.5385 31.0499 21.4322C31.0308 21.3259 31.037 21.2166 31.068 21.1131C31.3162 20.2857 31.4413 19.4263 31.4393 18.5625V15.125C31.4393 14.9427 31.5117 14.7678 31.6406 14.6389C31.7696 14.5099 31.9444 14.4375 32.1268 14.4375H32.4705C33.4728 14.4393 34.4335 14.8383 35.1423 15.547C35.851 16.2557 36.25 17.2165 36.2518 18.2188C36.25 19.221 35.851 20.1818 35.1423 20.8905C34.4335 21.5992 33.4728 21.9982 32.4705 22ZM32.8143 15.8125V18.5625C32.8156 19.2552 32.7465 19.9463 32.608 20.625C33.2035 20.6057 33.7691 20.3598 34.1893 19.9375C34.4116 19.7134 34.5869 19.4471 34.7049 19.1543C34.823 18.8615 34.8814 18.5481 34.8768 18.2325C34.8861 17.6473 34.6818 17.0787 34.3022 16.6333C33.9225 16.1878 33.3936 15.896 32.8143 15.8125Z" fill="#FAFAFA"/>
<path d="M34.1875 12.375H24.5625C24.4182 12.375 24.2776 12.3296 24.1605 12.2452C24.0435 12.1609 23.9559 12.0418 23.9103 11.9049C23.8646 11.768 23.8632 11.6202 23.9063 11.4825C23.9493 11.3448 24.0346 11.2241 24.15 11.1375C24.6117 10.7912 24.9528 10.3084 25.1249 9.75747C25.297 9.20655 25.2914 8.61544 25.1089 8.06788C24.9264 7.52033 24.5762 7.04408 24.108 6.70659C23.6397 6.36911 23.0772 6.18751 22.5 6.18751C21.9228 6.18751 21.3603 6.36911 20.892 6.70659C20.4238 7.04408 20.0736 7.52033 19.8911 8.06788C19.7086 8.61544 19.703 9.20655 19.8751 9.75747C20.0472 10.3084 20.3883 10.7912 20.85 11.1375C20.9654 11.2241 21.0507 11.3448 21.0937 11.4825C21.1368 11.6202 21.1353 11.768 21.0897 11.9049C21.0441 12.0418 20.9565 12.1609 20.8395 12.2452C20.7224 12.3296 20.5818 12.375 20.4375 12.375H10.8125C10.6302 12.375 10.4553 12.3026 10.3264 12.1736C10.1974 12.0447 10.125 11.8698 10.125 11.6875V10.3125C10.125 7.94214 11.0666 5.66885 12.7427 3.99274C14.4188 2.31664 16.6921 1.37501 19.0625 1.37501H25.9375C27.2488 1.37305 28.5445 1.65966 29.7326 2.21452C30.9208 2.76938 31.9723 3.5789 32.8125 4.58564L32.8538 4.64064C34.1598 6.24254 34.8736 8.24569 34.875 10.3125V11.6875C34.875 11.8698 34.8026 12.0447 34.6736 12.1736C34.5447 12.3026 34.3698 12.375 34.1875 12.375ZM26.0681 11H33.5V10.3125C33.5009 8.55666 32.8908 6.85521 31.7744 5.50001C31.0645 4.63952 30.1731 3.94672 29.1639 3.47128C28.1548 2.99584 27.053 2.74953 25.9375 2.75001H19.0625C17.0568 2.75001 15.1332 3.54677 13.715 4.96502C12.2968 6.38326 11.5 8.30681 11.5 10.3125V11H18.9319C18.5682 10.3731 18.3761 9.66134 18.375 8.93653C18.3739 8.21173 18.5638 7.49943 18.9255 6.87136C19.2873 6.24329 19.8082 5.72163 20.4357 5.3589C21.0632 4.99618 21.7752 4.8052 22.5 4.8052C23.2248 4.8052 23.9368 4.99618 24.5643 5.3589C25.1918 5.72163 25.7127 6.24329 26.0745 6.87136C26.4362 7.49943 26.6261 8.21173 26.625 8.93653C26.6239 9.66134 26.4318 10.3731 26.0681 11Z" fill="#FAFAFA"/>
<path d="M22.5 13.0625C21.6069 13.066 20.7374 12.7762 20.025 12.2375C19.3324 11.718 18.8208 10.9938 18.5626 10.1674C18.3045 9.34106 18.3129 8.4544 18.5867 7.63306C18.8605 6.81172 19.3857 6.09735 20.0881 5.59113C20.7904 5.0849 21.6342 4.8125 22.5 4.8125C23.3658 4.8125 24.2096 5.0849 24.9119 5.59113C25.6143 6.09735 26.1395 6.81172 26.4133 7.63306C26.6871 8.4544 26.6955 9.34106 26.4374 10.1674C26.1792 10.9938 25.6676 11.718 24.975 12.2375C24.4222 12.655 23.771 12.9226 23.0844 13.0144C22.8912 13.0458 22.6958 13.0619 22.5 13.0625ZM22.5 6.1875C21.9228 6.1875 21.3603 6.3691 20.892 6.70658C20.4238 7.04407 20.0736 7.52032 19.8911 8.06787C19.7086 8.61543 19.703 9.20654 19.8751 9.75746C20.0472 10.3084 20.3883 10.7912 20.85 11.1375C21.1361 11.3555 21.4629 11.5141 21.8112 11.6038C22.1595 11.6936 22.5223 11.7127 22.8781 11.66C23.3408 11.6012 23.7796 11.421 24.15 11.1375C24.6117 10.7912 24.9528 10.3084 25.1249 9.75746C25.297 9.20654 25.2914 8.61543 25.1089 8.06787C24.9264 7.52032 24.5762 7.04407 24.108 6.70658C23.6397 6.3691 23.0772 6.1875 22.5 6.1875Z" fill="#FAFAFA"/>
<path d="M23.875 28.875H21.125C19.6663 28.875 18.2674 28.2955 17.2359 27.2641C16.2045 26.2326 15.625 24.8337 15.625 23.375V19.9375C15.625 19.7552 15.6974 19.5803 15.8264 19.4514C15.9553 19.3224 16.1302 19.25 16.3125 19.25H28.6875C28.8698 19.25 29.0447 19.3224 29.1736 19.4514C29.3026 19.5803 29.375 19.7552 29.375 19.9375V23.375C29.375 24.8337 28.7955 26.2326 27.7641 27.2641C26.7326 28.2955 25.3337 28.875 23.875 28.875ZM17 20.625V23.375C17 24.469 17.4346 25.5182 18.2082 26.2918C18.9818 27.0654 20.031 27.5 21.125 27.5H23.875C24.969 27.5 26.0182 27.0654 26.7918 26.2918C27.5654 25.5182 28 24.469 28 23.375V20.625H17Z" fill="#6EE7B7"/>
<path d="M16.3125 20.625C16.2132 20.625 16.1151 20.6035 16.0249 20.562C15.9347 20.5205 15.8546 20.4599 15.79 20.3844L11.665 15.5719C11.5465 15.4333 11.4879 15.2534 11.5021 15.0716C11.5163 14.8898 11.6021 14.7211 11.7407 14.6025C11.8792 14.484 12.0592 14.4254 12.241 14.4396C12.4228 14.4538 12.5915 14.5396 12.71 14.6782L16.835 19.4907C16.9205 19.5905 16.9755 19.7128 16.9935 19.843C17.0116 19.9732 16.992 20.1058 16.937 20.2252C16.882 20.3445 16.794 20.4456 16.6833 20.5165C16.5726 20.5874 16.444 20.625 16.3125 20.625Z" fill="#6EE7B7"/>
<path d="M28.6875 20.625C28.5561 20.625 28.4274 20.5874 28.3168 20.5165C28.2061 20.4456 28.118 20.3445 28.0631 20.2252C28.0081 20.1058 27.9885 19.9732 28.0065 19.843C28.0246 19.7128 28.0796 19.5905 28.165 19.4907L32.29 14.6782C32.3487 14.6095 32.4204 14.5532 32.5008 14.5122C32.5813 14.4713 32.6691 14.4466 32.7591 14.4396C32.8491 14.4326 32.9396 14.4433 33.0255 14.4713C33.1113 14.4993 33.1908 14.5438 33.2594 14.6025C33.328 14.6612 33.3844 14.7328 33.4254 14.8133C33.4663 14.8938 33.491 14.9815 33.498 15.0716C33.505 15.1616 33.4942 15.2521 33.4663 15.3379C33.4383 15.4238 33.3937 15.5033 33.335 15.5719L29.21 20.3844C29.1455 20.4599 29.0654 20.5205 28.9752 20.562C28.885 20.6035 28.7868 20.625 28.6875 20.625Z" fill="#6EE7B7"/>
<path d="M22.5018 42.6268H15.6268C15.4715 42.6321 15.3191 42.5847 15.1943 42.4924C15.0694 42.4 14.9795 42.268 14.9393 42.1181L14.5405 40.6812C14.5173 40.5871 14.5132 40.4893 14.5286 40.3937C14.5439 40.298 14.5784 40.2064 14.6299 40.1243L16.0049 38.0068L14.513 37.0099C14.367 36.914 14.2631 36.7661 14.2222 36.5962C14.1813 36.4264 14.2067 36.2474 14.293 36.0956L17.043 31.2831C17.1074 31.1707 17.2023 31.0788 17.3166 31.018C17.4309 30.9572 17.5601 30.9299 17.6893 30.9393H19.7518C19.907 30.934 20.0594 30.9814 20.1842 31.0738C20.3091 31.1661 20.399 31.2981 20.4393 31.4481L23.1893 41.7606C23.2161 41.8631 23.2189 41.9704 23.1975 42.0741C23.176 42.1779 23.1308 42.2753 23.0655 42.3587C22.9994 42.4447 22.9138 42.5138 22.8158 42.5604C22.7178 42.607 22.6102 42.6298 22.5018 42.6268ZM16.1493 41.2518H21.608L19.2224 32.3143H18.088L15.8536 36.2262L17.3799 37.2437C17.5317 37.3434 17.6379 37.4992 17.6753 37.6769C17.7126 37.8547 17.6781 38.04 17.5793 38.1924L15.9774 40.6193L16.1493 41.2518Z" fill="#FAFAFA"/>
<path d="M29.3768 42.625H22.5018C22.3968 42.6248 22.2933 42.6005 22.1991 42.554C22.105 42.5075 22.0227 42.4401 21.9587 42.3569C21.8934 42.2735 21.8482 42.1761 21.8268 42.0723C21.8053 41.9686 21.8081 41.8612 21.835 41.7588L23.8975 33.9556C23.8975 33.9556 23.8975 33.9556 23.8975 33.9075L24.585 31.4463C24.6244 31.2998 24.7112 31.1704 24.8318 31.0784C24.9524 30.9864 25.1001 30.9368 25.2518 30.9375H27.3143C27.4355 30.937 27.5546 30.9686 27.6596 31.0289C27.7647 31.0893 27.8519 31.1763 27.9125 31.2813L30.6625 36.0938C30.7488 36.2456 30.7741 36.4246 30.7333 36.5944C30.6924 36.7643 30.5884 36.9122 30.4425 37.0081L28.9506 38.005L30.3256 40.1225C30.3771 40.2046 30.4115 40.2962 30.4269 40.3919C30.4423 40.4875 30.4382 40.5853 30.415 40.6794L30.0643 42.1163C30.024 42.2662 29.9342 42.3982 29.8093 42.4906C29.6845 42.5829 29.532 42.6303 29.3768 42.625ZM23.3956 41.25H28.8543L29.0262 40.6175L27.4243 38.1906C27.3255 38.0382 27.291 37.8529 27.3283 37.6751C27.3657 37.4974 27.4719 37.3416 27.6237 37.2419L29.15 36.2244L26.9156 32.3125H25.7812L25.2518 34.2238C25.2518 34.2238 25.2518 34.2238 25.2518 34.2719L23.3956 41.25Z" fill="#FAFAFA"/>
</svg>
