<svg width="44" height="44" viewBox="0 0 44 44" fill="none" xmlns="http://www.w3.org/2000/svg">
<path opacity="0.5" d="M18.5625 15.8125H7.5625C6.04372 15.8125 4.8125 17.0437 4.8125 18.5625V29.5625C4.8125 31.0813 6.04372 32.3125 7.5625 32.3125H18.5625C20.0813 32.3125 21.3125 31.0813 21.3125 29.5625V18.5625C21.3125 17.0437 20.0813 15.8125 18.5625 15.8125Z" fill="#6EE7B7"/>
<path d="M29.777 24.7507H14.2257C13.4739 24.7559 12.7391 24.527 12.1232 24.0958C11.5072 23.6647 11.0407 23.0526 10.7882 22.3445C10.6438 21.9388 10.4926 21.3682 10.3207 20.7151C9.96321 19.402 9.48196 17.5938 8.98696 16.982C8.19536 15.996 7.60578 14.8638 7.25189 13.65C6.898 12.4361 6.78673 11.1644 6.92446 9.90759C7.13145 7.73388 8.08617 5.69932 9.62577 4.15095C11.1654 2.60257 13.1945 1.6363 15.367 1.41696C16.6808 1.29204 18.0061 1.4539 19.2513 1.89134C21.0289 2.53061 22.9737 2.53061 24.7513 1.89134C26.0008 1.45191 27.3311 1.29003 28.6495 1.41696C30.8182 1.64079 32.8425 2.60904 34.378 4.15701C35.9134 5.70497 36.8651 7.73705 37.0713 9.90759C37.2091 11.1644 37.0978 12.4361 36.7439 13.65C36.39 14.8638 35.8004 15.996 35.0088 16.982C34.5138 17.5938 34.0326 19.402 33.6751 20.7151C33.5032 21.3682 33.352 21.9388 33.2076 22.3445C32.9555 23.0515 32.49 23.6628 31.8754 24.0939C31.2609 24.5249 30.5276 24.7544 29.777 24.7507ZM16.2263 2.75071C15.9857 2.75071 15.7382 2.75071 15.4976 2.75071C13.645 2.96132 11.9204 3.79998 10.6108 5.12712C9.30112 6.45427 8.48544 8.18986 8.29946 10.0451C8.18037 11.125 8.27576 12.2178 8.58015 13.2608C8.88454 14.3037 9.39194 15.2763 10.0732 16.1226C10.7607 16.9613 11.2351 18.7695 11.6613 20.3576C11.8195 20.9626 11.9707 21.5332 12.1013 21.8907C12.258 22.3278 12.5465 22.7054 12.9271 22.9714C13.3076 23.2375 13.7614 23.3787 14.2257 23.3757H29.777C30.2413 23.3787 30.695 23.2375 31.0756 22.9714C31.4561 22.7054 31.7447 22.3278 31.9013 21.8907C32.032 21.5332 32.1832 20.9626 32.3413 20.3576C32.7676 18.7695 33.2557 16.9613 33.9295 16.1226C34.6107 15.2763 35.1181 14.3037 35.4225 13.2608C35.7269 12.2178 35.8223 11.125 35.7032 10.0451C35.5098 8.19603 34.6909 6.46842 33.3819 5.1482C32.0729 3.82797 30.3524 2.99428 28.5051 2.78509C27.3864 2.68044 26.2584 2.8188 25.1982 3.19071C23.1305 3.92652 20.8722 3.92652 18.8045 3.19071C17.9768 2.89691 17.1046 2.74806 16.2263 2.75071Z" fill="#FAFAFA"/>
<path d="M22.0036 7.37234C19.649 7.32842 17.3426 6.69747 15.2936 5.53671C15.2002 5.50103 15.1158 5.44543 15.0461 5.37378C14.9765 5.30213 14.9233 5.21615 14.8902 5.12184C14.8572 5.02753 14.8451 4.92715 14.8548 4.82769C14.8645 4.72823 14.8958 4.63209 14.9465 4.54595C14.9972 4.45982 15.066 4.38577 15.1482 4.32895C15.2304 4.27214 15.324 4.23393 15.4225 4.21699C15.521 4.20004 15.622 4.20477 15.7184 4.23085C15.8149 4.25692 15.9045 4.30371 15.9811 4.36796C17.8268 5.39136 19.8937 5.95056 22.0036 5.99734C24.1041 5.94613 26.1611 5.38707 27.9986 4.36796C28.0751 4.30371 28.1647 4.25692 28.2612 4.23085C28.3577 4.20477 28.4587 4.20004 28.5572 4.21699C28.6557 4.23393 28.7493 4.27214 28.8315 4.32895C28.9137 4.38577 28.9825 4.45982 29.0332 4.54595C29.0838 4.63209 29.1151 4.72823 29.1248 4.82769C29.1346 4.92715 29.1225 5.02753 29.0894 5.12184C29.0564 5.21615 29.0032 5.30213 28.9335 5.37378C28.8639 5.44543 28.7794 5.50103 28.6861 5.53671C26.6452 6.69307 24.3488 7.32387 22.0036 7.37234Z" fill="#FAFAFA"/>
<path d="M24.7517 42.625H19.3205C19.1942 42.6253 19.0704 42.5908 18.9624 42.5253C18.8545 42.4598 18.7667 42.3658 18.7086 42.2537L15.2711 35.7087C15.2284 35.6228 15.2027 35.5294 15.1955 35.4338L14.3842 24.1106C14.3782 24.0165 14.3915 23.9222 14.4235 23.8335C14.4554 23.7448 14.5052 23.6636 14.5699 23.595C14.634 23.5259 14.7116 23.4707 14.7979 23.4328C14.8843 23.395 14.9775 23.3753 15.0717 23.375H28.9317C29.026 23.3753 29.1192 23.395 29.2055 23.4328C29.2919 23.4707 29.3695 23.5259 29.4336 23.595C29.4983 23.6636 29.5481 23.7448 29.58 23.8335C29.612 23.9222 29.6253 24.0165 29.6192 24.1106L28.8767 35.4338C28.8695 35.5294 28.8439 35.6228 28.8011 35.7087L25.3636 42.2537C25.3055 42.3658 25.2177 42.4598 25.1098 42.5253C25.0019 42.5908 24.878 42.6253 24.7517 42.625ZM19.733 41.25H24.3392L27.5017 35.2L28.1892 24.75H15.8142L16.5017 35.2L19.733 41.25Z" fill="#FAFAFA"/>
<path d="M30.2522 28.8772H30.1972L13.6972 27.5022C13.5149 27.4876 13.3458 27.4012 13.2272 27.2619C13.1086 27.1227 13.0501 26.942 13.0647 26.7597C13.0793 26.5774 13.1657 26.4083 13.305 26.2897C13.4442 26.1711 13.6249 26.1126 13.8072 26.1272L30.3072 27.5022C30.4895 27.5095 30.6615 27.5889 30.7853 27.723C30.9091 27.8571 30.9745 28.0349 30.9672 28.2172C30.9599 28.3995 30.8805 28.5715 30.7464 28.6953C30.6123 28.8191 30.4345 28.8845 30.2522 28.8772Z" fill="#FAFAFA"/>
<path d="M30.2524 32.3149H30.1974L13.6974 30.9399C13.607 30.9329 13.5189 30.9082 13.4381 30.867C13.3573 30.8259 13.2854 30.7692 13.2266 30.7002C13.1679 30.6312 13.1233 30.5512 13.0955 30.4649C13.0678 30.3786 13.0574 30.2877 13.0649 30.1974C13.0718 30.107 13.0966 30.0189 13.1377 29.9381C13.1788 29.8573 13.2355 29.7854 13.3045 29.7266C13.3735 29.6679 13.4535 29.6233 13.5398 29.5955C13.6261 29.5678 13.717 29.5574 13.8074 29.5649L30.3074 30.9399C30.4897 30.9472 30.6617 31.0266 30.7854 31.1607C30.9092 31.2948 30.9747 31.4725 30.9674 31.6549C30.9601 31.8372 30.8806 32.0092 30.7466 32.1329C30.6125 32.2567 30.4347 32.3222 30.2524 32.3149Z" fill="#FAFAFA"/>
<path d="M29.5653 35.7489H29.5034L14.3784 34.3739C14.2881 34.3657 14.2003 34.3399 14.12 34.2979C14.0397 34.2558 13.9685 34.1983 13.9104 34.1288C13.8523 34.0592 13.8085 33.9788 13.7814 33.8923C13.7544 33.8058 13.7447 33.7148 13.7528 33.6245C13.7609 33.5342 13.7867 33.4464 13.8288 33.3661C13.8708 33.2858 13.9283 33.2146 13.9979 33.1565C14.0675 33.0984 14.1478 33.0546 14.2343 33.0275C14.3209 33.0005 14.4119 32.9907 14.5022 32.9989L29.6272 34.3739C29.8095 34.3821 29.9811 34.4624 30.1042 34.5971C30.2274 34.7318 30.2919 34.91 30.2837 35.0923C30.2755 35.2746 30.1952 35.4463 30.0605 35.5694C29.9257 35.6925 29.7476 35.7571 29.5653 35.7489Z" fill="#FAFAFA"/>
<path d="M28.1909 39.187H28.1222L15.0597 37.812C14.9694 37.803 14.8818 37.7763 14.8018 37.7334C14.7219 37.6905 14.6511 37.6323 14.5937 37.562C14.5362 37.4918 14.4932 37.411 14.467 37.3241C14.4407 37.2372 14.4319 37.1461 14.4409 37.0558C14.45 36.9655 14.4767 36.8779 14.5196 36.7979C14.5625 36.718 14.6207 36.6472 14.6909 36.5898C14.7611 36.5323 14.842 36.4893 14.9289 36.463C15.0157 36.4368 15.1069 36.428 15.1972 36.437L28.2597 37.812C28.442 37.8211 28.6133 37.9023 28.7357 38.0377C28.8582 38.1731 28.9219 38.3516 28.9128 38.5339C28.9037 38.7162 28.8225 38.8875 28.6871 39.01C28.5518 39.1325 28.3733 39.1961 28.1909 39.187Z" fill="#FAFAFA"/>
</svg>
