<svg width="16" height="22" viewBox="0 0 16 22" fill="none" xmlns="http://www.w3.org/2000/svg">
<path d="M14 9.66797C14 14.3346 8 18.3346 8 18.3346C8 18.3346 2 14.3346 2 9.66797C2 8.07667 2.63214 6.55055 3.75736 5.42533C4.88258 4.30011 6.4087 3.66797 8 3.66797C9.5913 3.66797 11.1174 4.30011 12.2426 5.42533C13.3679 6.55055 14 8.07667 14 9.66797Z" stroke="#171717" stroke-width="1.5" stroke-linecap="round" stroke-linejoin="round"/>
<path d="M8 11.668C9.10457 11.668 10 10.7725 10 9.66797C10 8.5634 9.10457 7.66797 8 7.66797C6.89543 7.66797 6 8.5634 6 9.66797C6 10.7725 6.89543 11.668 8 11.668Z" stroke="#171717" stroke-width="1.5" stroke-linecap="round" stroke-linejoin="round"/>
</svg>
