<svg width="25" height="25" viewBox="0 0 25 25" fill="none" xmlns="http://www.w3.org/2000/svg">
<path d="M20.7315 10.9975C20.7315 17.4521 14.1204 21.4286 12.7466 22.186C12.6704 22.228 12.5849 22.25 12.498 22.25C12.4111 22.25 12.3256 22.228 12.2495 22.186C10.8746 21.4286 4.26562 17.4521 4.26562 10.9975C4.26562 5.8519 7.35297 2.25 12.4985 2.25C17.6441 2.25 20.7315 5.8519 20.7315 10.9975Z" stroke="#6EE7B7" stroke-width="2.5" stroke-linecap="round" stroke-linejoin="round"/>
<path d="M12.4994 13.823C14.3199 13.823 15.7957 12.3472 15.7957 10.5267C15.7957 8.70626 14.3199 7.23047 12.4994 7.23047C10.6789 7.23047 9.20312 8.70626 9.20312 10.5267C9.20312 12.3472 10.6789 13.823 12.4994 13.823Z" fill="#6EE7B7"/>
</svg>
