<svg width="44" height="44" viewBox="0 0 44 44" fill="none" xmlns="http://www.w3.org/2000/svg">
<path opacity="0.5" d="M28.875 25.4375H17.875C16.3562 25.4375 15.125 26.6687 15.125 28.1875V39.1875C15.125 40.7063 16.3562 41.9375 17.875 41.9375H28.875C30.3938 41.9375 31.625 40.7063 31.625 39.1875V28.1875C31.625 26.6687 30.3938 25.4375 28.875 25.4375Z" fill="#6EE7B7"/>
<path d="M26.4 35.0625H4.8125C4.63016 35.0625 4.4553 34.9901 4.32636 34.8611C4.19743 34.7322 4.125 34.5573 4.125 34.375V12.375C4.125 12.1927 4.19743 12.0178 4.32636 11.8889C4.4553 11.7599 4.63016 11.6875 4.8125 11.6875H33C33.1823 11.6875 33.3572 11.7599 33.4861 11.8889C33.6151 12.0178 33.6875 12.1927 33.6875 12.375V24.365C33.6944 24.5166 33.651 24.6663 33.5639 24.7907C33.4769 24.9151 33.3511 25.0071 33.2062 25.0525C32.1073 25.3911 30.9286 25.367 29.8444 24.9838C29.7068 24.939 29.5668 24.9023 29.425 24.8738C29.0452 24.7666 28.65 24.7248 28.2562 24.75C27.8556 24.7809 27.4629 24.8785 27.0944 25.0387C26.4506 25.3131 25.893 25.7563 25.4803 26.3214C25.0677 26.8866 24.8153 27.5527 24.75 28.2494C24.6557 29.2569 24.9648 30.2606 25.6094 31.0406C26.3197 31.9409 26.8073 32.9962 27.0325 34.1206V34.265C27.0482 34.3637 27.0422 34.4647 27.0149 34.5609C26.9876 34.6571 26.9396 34.7461 26.8744 34.8219C26.8152 34.8915 26.7428 34.9486 26.6614 34.9899C26.58 35.0312 26.4911 35.0559 26.4 35.0625ZM5.5 33.6875H25.5131C25.3107 33.0435 24.9914 32.4422 24.5712 31.9137C24.0548 31.2893 23.6911 30.553 23.509 29.7634C23.327 28.9738 23.3316 28.1526 23.5224 27.365C23.7133 26.5775 24.0852 25.8453 24.6086 25.2267C25.132 24.608 25.7925 24.12 26.5375 23.8012C27.044 23.5709 27.5854 23.4268 28.1394 23.375C28.6689 23.324 29.2032 23.3612 29.7206 23.485C29.9136 23.5242 30.1042 23.5747 30.2912 23.6363C30.9389 23.8668 31.6352 23.926 32.3125 23.8081V13.0625H5.5V33.6875Z" fill="#FAFAFA"/>
<path d="M33 13.0625H4.8125C4.63016 13.0625 4.4553 12.9901 4.32636 12.8611C4.19743 12.7322 4.125 12.5573 4.125 12.375V6.875C4.125 6.69266 4.19743 6.5178 4.32636 6.38886C4.4553 6.25993 4.63016 6.1875 4.8125 6.1875H33C33.1823 6.1875 33.3572 6.25993 33.4861 6.38886C33.6151 6.5178 33.6875 6.69266 33.6875 6.875V12.375C33.6875 12.5573 33.6151 12.7322 33.4861 12.8611C33.3572 12.9901 33.1823 13.0625 33 13.0625ZM5.5 11.6875H32.3125V7.5625H5.5V11.6875Z" fill="#FAFAFA"/>
<path d="M8.9375 9.625C8.75516 9.625 8.5803 9.55257 8.45136 9.42364C8.32243 9.2947 8.25 9.11984 8.25 8.9375V4.8125C8.25 4.63016 8.32243 4.4553 8.45136 4.32636C8.5803 4.19743 8.75516 4.125 8.9375 4.125C9.11984 4.125 9.2947 4.19743 9.42364 4.32636C9.55257 4.4553 9.625 4.63016 9.625 4.8125V8.9375C9.625 9.11984 9.55257 9.2947 9.42364 9.42364C9.2947 9.55257 9.11984 9.625 8.9375 9.625Z" fill="#FAFAFA"/>
<path d="M13.0625 9.625C12.8802 9.625 12.7053 9.55257 12.5764 9.42364C12.4474 9.2947 12.375 9.11984 12.375 8.9375V4.8125C12.375 4.63016 12.4474 4.4553 12.5764 4.32636C12.7053 4.19743 12.8802 4.125 13.0625 4.125C13.2448 4.125 13.4197 4.19743 13.5486 4.32636C13.6776 4.4553 13.75 4.63016 13.75 4.8125V8.9375C13.75 9.11984 13.6776 9.2947 13.5486 9.42364C13.4197 9.55257 13.2448 9.625 13.0625 9.625Z" fill="#FAFAFA"/>
<path d="M24.75 9.625C24.5677 9.625 24.3928 9.55257 24.2639 9.42364C24.1349 9.2947 24.0625 9.11984 24.0625 8.9375V4.8125C24.0625 4.63016 24.1349 4.4553 24.2639 4.32636C24.3928 4.19743 24.5677 4.125 24.75 4.125C24.9323 4.125 25.1072 4.19743 25.2361 4.32636C25.3651 4.4553 25.4375 4.63016 25.4375 4.8125V8.9375C25.4375 9.11984 25.3651 9.2947 25.2361 9.42364C25.1072 9.55257 24.9323 9.625 24.75 9.625Z" fill="#FAFAFA"/>
<path d="M28.875 9.625C28.6927 9.625 28.5178 9.55257 28.3889 9.42364C28.2599 9.2947 28.1875 9.11984 28.1875 8.9375V4.8125C28.1875 4.63016 28.2599 4.4553 28.3889 4.32636C28.5178 4.19743 28.6927 4.125 28.875 4.125C29.0573 4.125 29.2322 4.19743 29.3611 4.32636C29.4901 4.4553 29.5625 4.63016 29.5625 4.8125V8.9375C29.5625 9.11984 29.4901 9.2947 29.3611 9.42364C29.2322 9.55257 29.0573 9.625 28.875 9.625Z" fill="#FAFAFA"/>
<path d="M17.1875 19.25H14.4375C14.2552 19.25 14.0803 19.1776 13.9514 19.0486C13.8224 18.9197 13.75 18.7448 13.75 18.5625V15.8125C13.75 15.6302 13.8224 15.4553 13.9514 15.3264C14.0803 15.1974 14.2552 15.125 14.4375 15.125H17.1875C17.3698 15.125 17.5447 15.1974 17.6736 15.3264C17.8026 15.4553 17.875 15.6302 17.875 15.8125V18.5625C17.875 18.7448 17.8026 18.9197 17.6736 19.0486C17.5447 19.1776 17.3698 19.25 17.1875 19.25ZM15.125 17.875H16.5V16.5H15.125V17.875Z" fill="#FAFAFA"/>
<path d="M23.375 19.25H20.625C20.4427 19.25 20.2678 19.1776 20.1389 19.0486C20.0099 18.9197 19.9375 18.7448 19.9375 18.5625V15.8125C19.9375 15.6302 20.0099 15.4553 20.1389 15.3264C20.2678 15.1974 20.4427 15.125 20.625 15.125H23.375C23.5573 15.125 23.7322 15.1974 23.8611 15.3264C23.9901 15.4553 24.0625 15.6302 24.0625 15.8125V18.5625C24.0625 18.7448 23.9901 18.9197 23.8611 19.0486C23.7322 19.1776 23.5573 19.25 23.375 19.25ZM21.3125 17.875H22.6875V16.5H21.3125V17.875Z" fill="#FAFAFA"/>
<path d="M29.5625 19.25H26.8125C26.6302 19.25 26.4553 19.1776 26.3264 19.0486C26.1974 18.9197 26.125 18.7448 26.125 18.5625V15.8125C26.125 15.6302 26.1974 15.4553 26.3264 15.3264C26.4553 15.1974 26.6302 15.125 26.8125 15.125H29.5625C29.7448 15.125 29.9197 15.1974 30.0486 15.3264C30.1776 15.4553 30.25 15.6302 30.25 15.8125V18.5625C30.25 18.7448 30.1776 18.9197 30.0486 19.0486C29.9197 19.1776 29.7448 19.25 29.5625 19.25ZM27.5 17.875H28.875V16.5H27.5V17.875Z" fill="#FAFAFA"/>
<path d="M11 25.4375H8.25C8.06766 25.4375 7.8928 25.3651 7.76386 25.2361C7.63493 25.1072 7.5625 24.9323 7.5625 24.75V22C7.5625 21.8177 7.63493 21.6428 7.76386 21.5139C7.8928 21.3849 8.06766 21.3125 8.25 21.3125H11C11.1823 21.3125 11.3572 21.3849 11.4861 21.5139C11.6151 21.6428 11.6875 21.8177 11.6875 22V24.75C11.6875 24.9323 11.6151 25.1072 11.4861 25.2361C11.3572 25.3651 11.1823 25.4375 11 25.4375ZM8.9375 24.0625H10.3125V22.6875H8.9375V24.0625Z" fill="#FAFAFA"/>
<path d="M17.1875 25.4375H14.4375C14.2552 25.4375 14.0803 25.3651 13.9514 25.2361C13.8224 25.1072 13.75 24.9323 13.75 24.75V22C13.75 21.8177 13.8224 21.6428 13.9514 21.5139C14.0803 21.3849 14.2552 21.3125 14.4375 21.3125H17.1875C17.3698 21.3125 17.5447 21.3849 17.6736 21.5139C17.8026 21.6428 17.875 21.8177 17.875 22V24.75C17.875 24.9323 17.8026 25.1072 17.6736 25.2361C17.5447 25.3651 17.3698 25.4375 17.1875 25.4375ZM15.125 24.0625H16.5V22.6875H15.125V24.0625Z" fill="#FAFAFA"/>
<path d="M23.375 25.4375H20.625C20.4427 25.4375 20.2678 25.3651 20.1389 25.2361C20.0099 25.1072 19.9375 24.9323 19.9375 24.75V22C19.9375 21.8177 20.0099 21.6428 20.1389 21.5139C20.2678 21.3849 20.4427 21.3125 20.625 21.3125H23.375C23.5573 21.3125 23.7322 21.3849 23.8611 21.5139C23.9901 21.6428 24.0625 21.8177 24.0625 22V24.75C24.0625 24.9323 23.9901 25.1072 23.8611 25.2361C23.7322 25.3651 23.5573 25.4375 23.375 25.4375ZM21.3125 24.0625H22.6875V22.6875H21.3125V24.0625Z" fill="#FAFAFA"/>
<path d="M11 31.625H8.25C8.06766 31.625 7.8928 31.5526 7.76386 31.4236C7.63493 31.2947 7.5625 31.1198 7.5625 30.9375V28.1875C7.5625 28.0052 7.63493 27.8303 7.76386 27.7014C7.8928 27.5724 8.06766 27.5 8.25 27.5H11C11.1823 27.5 11.3572 27.5724 11.4861 27.7014C11.6151 27.8303 11.6875 28.0052 11.6875 28.1875V30.9375C11.6875 31.1198 11.6151 31.2947 11.4861 31.4236C11.3572 31.5526 11.1823 31.625 11 31.625ZM8.9375 30.25H10.3125V28.875H8.9375V30.25Z" fill="#FAFAFA"/>
<path d="M17.1875 31.625H14.4375C14.2552 31.625 14.0803 31.5526 13.9514 31.4236C13.8224 31.2947 13.75 31.1198 13.75 30.9375V28.1875C13.75 28.0052 13.8224 27.8303 13.9514 27.7014C14.0803 27.5724 14.2552 27.5 14.4375 27.5H17.1875C17.3698 27.5 17.5447 27.5724 17.6736 27.7014C17.8026 27.8303 17.875 28.0052 17.875 28.1875V30.9375C17.875 31.1198 17.8026 31.2947 17.6736 31.4236C17.5447 31.5526 17.3698 31.625 17.1875 31.625ZM15.125 30.25H16.5V28.875H15.125V30.25Z" fill="#FAFAFA"/>
<path d="M34.6314 39.8737C34.1383 39.8752 33.6591 39.7104 33.2712 39.4061C32.8832 39.1017 32.6092 38.6755 32.4933 38.1962L31.847 35.5356C31.8347 35.4866 31.8063 35.4431 31.7665 35.4121C31.7266 35.381 31.6775 35.3641 31.627 35.3641C31.5765 35.3641 31.5274 35.381 31.4876 35.4121C31.4477 35.4431 31.4194 35.4866 31.407 35.5356L30.7608 38.1962C30.6422 38.6741 30.3691 39.0995 29.9839 39.4062C29.6892 39.6376 29.3402 39.7899 28.9702 39.8486C28.6001 39.9073 28.2212 39.8706 27.8693 39.7418C27.5174 39.613 27.2042 39.3965 26.9595 39.1128C26.7147 38.8291 26.5465 38.4876 26.4708 38.1206L26.2026 36.8143C26.0514 36.0581 25.8795 35.24 25.7283 34.5181V34.4081C25.5506 33.4989 25.1621 32.6441 24.5939 31.9125C24.0774 31.288 23.7137 30.5517 23.5317 29.7621C23.3496 28.9725 23.3542 28.1513 23.5451 27.3637C23.736 26.5762 24.1079 25.844 24.6313 25.2254C25.1546 24.6067 25.8151 24.1187 26.5601 23.8C27.0602 23.5718 27.5944 23.4278 28.1414 23.3737C28.6709 23.3227 29.2053 23.3599 29.7226 23.4837C29.9156 23.5229 30.1062 23.5734 30.2933 23.635C31.1 23.9209 31.9772 23.9402 32.7958 23.69L32.9126 23.6487L33.2426 23.5456H33.3251C33.9105 23.3811 34.5205 23.3229 35.1264 23.3737C35.6404 23.4116 36.1446 23.5347 36.6183 23.7381C37.0576 23.9062 37.4699 24.1378 37.842 24.4256C38.4189 24.8675 38.8977 25.4245 39.248 26.0612C39.5983 26.6979 39.8125 27.4005 39.877 28.1243C40.0009 29.4949 39.5783 30.8588 38.7014 31.9193C38.3651 32.333 38.0959 32.797 37.9039 33.2943C37.7561 33.6539 37.6433 34.0269 37.567 34.4081C37.4089 35.1781 37.2233 36.0718 37.0514 36.8831C36.962 37.3506 36.8795 37.7631 36.8039 38.1275C36.7827 38.2404 36.7505 38.3509 36.7076 38.4575C36.5635 38.8216 36.3265 39.1416 36.0201 39.3856C35.6281 39.705 35.137 39.8776 34.6314 39.8737ZM31.627 33.9887C31.9859 33.984 32.3356 34.1022 32.6182 34.3235C32.9008 34.5448 33.0993 34.856 33.1808 35.2056L33.827 37.8662C33.8703 38.0468 33.9733 38.2075 34.1193 38.3222C34.2653 38.437 34.4457 38.4992 34.6314 38.4987C34.8169 38.5018 34.9973 38.4384 35.1401 38.32C35.2557 38.2301 35.3458 38.1116 35.4014 37.9762C35.4014 37.9762 35.4014 37.9075 35.4014 37.8731C35.4839 37.4881 35.5664 37.0893 35.6489 36.6562C35.8276 35.7968 36.0133 34.9031 36.1714 34.1262C36.2618 33.655 36.4 33.1943 36.5839 32.7512C36.8271 32.1218 37.1682 31.5348 37.5945 31.0118C38.2494 30.2462 38.5756 29.2529 38.502 28.2481C38.4514 27.7223 38.2935 27.2125 38.0381 26.7501C37.7826 26.2878 37.4351 25.8827 37.017 25.56C36.743 25.3405 36.4369 25.1643 36.1095 25.0375C35.7614 24.8808 35.3897 24.7832 35.0095 24.7487C34.5669 24.7011 34.1193 24.7361 33.6895 24.8518H33.6139L33.4214 24.9137H33.3526L33.1533 24.9756C32.0705 25.302 30.9116 25.2731 29.8464 24.8931C29.7088 24.8483 29.5688 24.8116 29.427 24.7831C29.0421 24.7059 28.647 24.6943 28.2583 24.7487C27.8576 24.7796 27.4649 24.8772 27.0964 25.0375C26.4527 25.3118 25.895 25.755 25.4823 26.3201C25.0697 26.8853 24.8173 27.5514 24.752 28.2481C24.6577 29.2556 24.9668 30.2593 25.6114 31.0393C26.3217 31.9396 26.8093 32.9949 27.0345 34.1193V34.2637C27.1789 34.9512 27.3439 35.7831 27.502 36.5393L27.7701 37.8456C27.8024 38.0363 27.9006 38.2096 28.0476 38.3353C28.1946 38.4609 28.3811 38.531 28.5745 38.5331C28.7564 38.5342 28.9333 38.4736 29.0764 38.3612C29.2253 38.2483 29.3319 38.0884 29.3789 37.9075L30.0251 35.24C30.1012 34.8757 30.3039 34.5502 30.5971 34.3212C30.8903 34.0921 31.2552 33.9743 31.627 33.9887Z" fill="#6EE7B7"/>
<path d="M31.6244 27.6427C30.4692 27.6059 29.3475 27.2463 28.3862 26.6046C28.309 26.5535 28.2428 26.4873 28.1918 26.4099C28.1408 26.3326 28.1059 26.2457 28.0893 26.1546C28.0727 26.0634 28.0746 25.9699 28.0951 25.8795C28.1155 25.7891 28.154 25.7038 28.2083 25.6287C28.2625 25.5536 28.3314 25.4902 28.4108 25.4424C28.4901 25.3946 28.5783 25.3633 28.6701 25.3504C28.7618 25.3375 28.8552 25.3433 28.9447 25.3675C29.0341 25.3916 29.1178 25.4336 29.1906 25.4909C29.9171 25.9643 30.7579 26.2328 31.6244 26.2677C32.4908 26.2328 33.3317 25.9643 34.0581 25.4909C34.131 25.4336 34.2146 25.3916 34.3041 25.3675C34.3935 25.3433 34.4869 25.3375 34.5787 25.3504C34.6704 25.3633 34.7586 25.3946 34.838 25.4424C34.9173 25.4902 34.9862 25.5536 35.0405 25.6287C35.0947 25.7038 35.1332 25.7891 35.1537 25.8795C35.1741 25.9699 35.1761 26.0634 35.1595 26.1546C35.1428 26.2457 35.108 26.3326 35.0569 26.4099C35.0059 26.4873 34.9398 26.5535 34.8625 26.6046C33.9013 27.2463 32.7795 27.6059 31.6244 27.6427Z" fill="#6EE7B7"/>
</svg>
