<svg width="44" height="44" viewBox="0 0 44 44" fill="none" xmlns="http://www.w3.org/2000/svg">
<path opacity="0.5" d="M31.625 25.4375H20.625C19.1062 25.4375 17.875 26.6687 17.875 28.1875V39.1875C17.875 40.7063 19.1062 41.9375 20.625 41.9375H31.625C33.1438 41.9375 34.375 40.7063 34.375 39.1875V28.1875C34.375 26.6687 33.1438 25.4375 31.625 25.4375Z" fill="#6EE7B7"/>
<path d="M28.8233 39.8757C27.9 39.8761 27.0032 39.5667 26.2765 38.9971C25.5498 38.4275 25.0353 37.6305 24.8152 36.7338L23.3302 30.67C23.2557 30.3727 23.084 30.1088 22.8423 29.9203C22.6007 29.7317 22.303 29.6293 21.9965 29.6293C21.69 29.6293 21.3922 29.7317 21.1506 29.9203C20.9089 30.1088 20.7372 30.3727 20.6627 30.67L19.1777 36.7338C18.9644 37.6321 18.4501 38.4303 17.7202 38.9957C17.1679 39.4293 16.514 39.7147 15.8205 39.825C15.1271 39.9352 14.4169 39.8666 13.7574 39.6257C13.0978 39.3847 12.5107 38.9794 12.0516 38.448C11.5925 37.9167 11.2767 37.277 11.134 36.5894L9.39458 28.1469C8.98912 25.939 8.04447 23.8655 6.64458 22.1107C4.80591 19.8799 3.91928 17.015 4.17646 14.1357C4.3267 12.4769 4.85165 10.874 5.7117 9.44769C6.57175 8.02141 7.74445 6.80906 9.14135 5.90207C10.5382 4.99507 12.1229 4.41713 13.7757 4.21183C15.4285 4.00653 17.1064 4.17923 18.6827 4.7169C20.8248 5.47335 23.1613 5.47335 25.3033 4.7169C26.8809 4.17543 28.5609 3.99979 30.2163 4.20325C31.8718 4.40672 33.4592 4.98396 34.8587 5.89134C36.2582 6.79871 37.433 8.01244 38.2943 9.44073C39.1556 10.869 39.6808 12.4745 39.8302 14.1357C40.0855 17.0127 39.199 19.8748 37.3621 22.1038C36.9524 22.6005 36.5867 23.1319 36.269 23.6919C36.1897 23.8304 36.0647 23.937 35.9154 23.9935C35.7662 24.0499 35.6019 24.0527 35.4508 24.0013L33.684 23.41L28.184 25.2457V30.8007C28.1592 32.1255 28.4596 33.4361 29.0589 34.6179C29.6582 35.7997 30.5381 36.8165 31.6215 37.5794C31.7049 37.6349 31.7752 37.7079 31.8275 37.7934C31.8797 37.8789 31.9127 37.9748 31.924 38.0744C31.9359 38.1736 31.9261 38.2741 31.8952 38.3691C31.8644 38.4641 31.8132 38.5512 31.7452 38.6244C31.6421 38.7347 31.5319 38.838 31.4152 38.9338C30.6849 39.5358 29.7698 39.8683 28.8233 39.8757ZM21.9965 28.2432C22.6137 28.2353 23.2151 28.4391 23.7004 28.8207C24.1857 29.2022 24.5258 29.7384 24.664 30.34L26.1215 36.4382C26.2217 36.8472 26.4145 37.2278 26.6851 37.5505C26.9557 37.8732 27.2967 38.1295 27.682 38.2996C28.0673 38.4696 28.4865 38.5489 28.9073 38.5314C29.3281 38.5138 29.7392 38.3998 30.109 38.1982C29.0544 37.279 28.2128 36.141 27.6429 34.8635C27.073 33.5859 26.7884 32.1994 26.809 30.8007V24.7507C26.8011 24.6007 26.8426 24.4524 26.927 24.3282C27.0114 24.2041 27.1342 24.111 27.2765 24.0632L33.464 22.0007C33.6067 21.9525 33.7612 21.9525 33.904 22.0007L35.3683 22.4888C35.651 22.0399 35.9634 21.6104 36.3033 21.2032C37.9137 19.2551 38.6873 16.7487 38.4552 14.2319C38.3254 12.7783 37.8668 11.3733 37.1141 10.1231C36.3613 8.87286 35.3341 7.81018 34.1102 7.01541C32.8862 6.22064 31.4976 5.7146 30.0493 5.53555C28.6009 5.3565 27.1309 5.50913 25.7502 5.9819C23.3173 6.83071 20.6687 6.83071 18.2358 5.9819C16.8556 5.5104 15.3862 5.35875 13.9388 5.53841C12.4913 5.71807 11.1036 6.22435 9.88055 7.01899C8.65746 7.81363 7.63097 8.87586 6.87862 10.1254C6.12628 11.375 5.66776 12.7792 5.53771 14.2319C5.30558 16.7487 6.07924 19.2551 7.68958 21.2032C9.23665 23.1329 10.285 25.4137 10.7421 27.8444L12.4815 36.2869C12.6052 36.9094 12.9405 37.47 13.4305 37.8735C13.9204 38.277 14.5349 38.4986 15.1696 38.5007C15.7868 38.4992 16.3863 38.2938 16.8746 37.9163C17.3618 37.5479 17.7125 37.0279 17.8715 36.4382L19.3565 30.3675C19.4882 29.7654 19.8218 29.2264 20.302 28.84C20.7822 28.4536 21.3801 28.243 21.9965 28.2432Z" fill="#FAFAFA"/>
<path d="M21.9948 10.9992C19.2157 10.948 16.4933 10.2036 14.0748 8.83359C13.9815 8.7979 13.897 8.7423 13.8274 8.67065C13.7577 8.599 13.7045 8.51303 13.6715 8.41872C13.6384 8.32441 13.6264 8.22402 13.6361 8.12457C13.6458 8.02511 13.6771 7.92896 13.7277 7.84283C13.7784 7.7567 13.8472 7.68264 13.9294 7.62583C14.0117 7.56901 14.1053 7.5308 14.2037 7.51386C14.3022 7.49692 14.4032 7.50165 14.4997 7.52772C14.5962 7.5538 14.6858 7.60059 14.7623 7.66484C16.9793 8.89306 19.461 9.5654 21.9948 9.62421C24.5197 9.56397 26.9922 8.89159 29.1998 7.66484C29.2764 7.60059 29.366 7.5538 29.4625 7.52772C29.5589 7.50165 29.6599 7.49692 29.7584 7.51386C29.8569 7.5308 29.9505 7.56901 30.0327 7.62583C30.1149 7.68264 30.1838 7.7567 30.2344 7.84283C30.2851 7.92896 30.3164 8.02511 30.3261 8.12457C30.3358 8.22402 30.3237 8.32441 30.2907 8.41872C30.2576 8.51303 30.2044 8.599 30.1348 8.67065C30.0651 8.7423 29.9807 8.7979 29.8873 8.83359C27.477 10.1992 24.7646 10.9435 21.9948 10.9992Z" fill="#FAFAFA"/>
<path d="M33.6806 39.876H33.5294C32.5843 39.6655 31.6867 39.2808 30.8825 38.7416C29.6058 37.8519 28.5667 36.6629 27.856 35.2786C27.1452 33.8943 26.7846 32.3569 26.8056 30.801V24.751C26.7978 24.6011 26.8393 24.4527 26.9237 24.3286C27.0081 24.2044 27.1308 24.1113 27.2731 24.0635L33.4606 22.001C33.6033 21.9528 33.7579 21.9528 33.9006 22.001L40.0881 24.0635C40.2304 24.1113 40.3532 24.2044 40.4376 24.3286C40.522 24.4527 40.5634 24.6011 40.5556 24.751V30.801C40.5556 35.1872 37.73 38.996 33.8319 39.8622L33.6806 39.876ZM28.1806 25.246V30.801C28.1559 32.1258 28.4563 33.4365 29.0556 34.6183C29.6549 35.8 30.5347 36.8169 31.6181 37.5797C32.2433 38.0108 32.9424 38.3231 33.6806 38.501C36.8775 37.7104 39.1806 34.5066 39.1806 30.8216V25.246L33.6806 23.4104L28.1806 25.246Z" fill="#6EE7B7"/>
<path d="M32.995 32.9989C32.9045 32.9994 32.8148 32.9821 32.7311 32.9479C32.6473 32.9137 32.5711 32.8633 32.5069 32.7995L31.1319 31.4245C31.0024 31.2951 30.9297 31.1195 30.9297 30.9364C30.9297 30.7533 31.0024 30.5777 31.1319 30.4483C31.2613 30.3188 31.4369 30.2461 31.62 30.2461C31.8031 30.2461 31.9787 30.3188 32.1081 30.4483L32.995 31.342L35.9444 28.3858C36.0738 28.2563 36.2494 28.1836 36.4325 28.1836C36.6156 28.1836 36.7912 28.2563 36.9206 28.3858C37.0501 28.5152 37.1228 28.6908 37.1228 28.8739C37.1228 29.057 37.0501 29.2326 36.9206 29.362L33.4831 32.7995C33.4189 32.8633 33.3427 32.9137 33.2589 32.9479C33.1752 32.9821 33.0855 32.9994 32.995 32.9989Z" fill="#6EE7B7"/>
</svg>
