<svg width="34" height="34" viewBox="0 0 34 34" fill="none" xmlns="http://www.w3.org/2000/svg">
<path d="M24.0807 29.75V26.9167C24.0807 25.4138 23.4837 23.9724 22.421 22.9097C21.3583 21.847 19.917 21.25 18.4141 21.25H7.08073C5.57784 21.25 4.1365 21.847 3.07379 22.9097C2.01108 23.9724 1.41406 25.4138 1.41406 26.9167V29.75" stroke="#FAFAFA" stroke-width="2" stroke-linecap="round" stroke-linejoin="round"/>
<path d="M12.7526 15.5833C15.8822 15.5833 18.4193 13.0463 18.4193 9.91667C18.4193 6.78705 15.8822 4.25 12.7526 4.25C9.62299 4.25 7.08594 6.78705 7.08594 9.91667C7.08594 13.0463 9.62299 15.5833 12.7526 15.5833Z" fill="#FAFAFA" stroke="#FAFAFA" stroke-width="2" stroke-linecap="round" stroke-linejoin="round"/>
<path d="M32.5859 29.7494V26.9161C32.585 25.6605 32.1671 24.4409 31.3979 23.4485C30.6286 22.4562 29.5516 21.7475 28.3359 21.4336" stroke="#FAFAFA" stroke-width="2" stroke-linecap="round" stroke-linejoin="round"/>
<path d="M22.6641 4.43359C23.883 4.74569 24.9634 5.45459 25.7349 6.44853C26.5064 7.44248 26.9252 8.66494 26.9252 9.92318C26.9252 11.1814 26.5064 12.4039 25.7349 13.3978C24.9634 14.3918 23.883 15.1007 22.6641 15.4128" stroke="#FAFAFA" stroke-width="2" stroke-linecap="round" stroke-linejoin="round"/>
</svg>
