<svg width="44" height="44" viewBox="0 0 44 44" fill="none" xmlns="http://www.w3.org/2000/svg">
<path opacity="0.5" d="M17.1875 15.125H6.1875C4.66872 15.125 3.4375 16.3562 3.4375 17.875V28.875C3.4375 30.3938 4.66872 31.625 6.1875 31.625H17.1875C18.7063 31.625 19.9375 30.3938 19.9375 28.875V17.875C19.9375 16.3562 18.7063 15.125 17.1875 15.125Z" fill="#6EE7B7"/>
<path d="M29.1055 37.1298C28.3016 37.1295 27.5214 36.8578 26.8912 36.3586C26.2611 35.8595 25.8179 35.1622 25.6336 34.3798L24.3892 29.2854C24.3492 29.0408 24.2235 28.8184 24.0346 28.6579C23.8457 28.4974 23.6059 28.4093 23.358 28.4093C23.1101 28.4093 22.8703 28.4974 22.6814 28.6579C22.4925 28.8184 22.3668 29.0408 22.3267 29.2854L21.1099 34.3798C20.9156 35.1667 20.4597 35.8642 19.8169 36.358C19.174 36.8518 18.3825 37.1125 17.5721 37.0973C16.7617 37.0821 15.9805 36.7919 15.3566 36.2744C14.7328 35.7569 14.3033 35.0428 14.1386 34.2491C13.733 32.2966 13.1486 29.4366 12.6811 27.161C12.3363 25.3225 11.5455 23.5968 10.378 22.1354C8.82379 20.236 8.08253 17.7998 8.3155 15.3566C8.53424 13.192 9.494 11.1694 11.0324 9.63103C12.5708 8.09263 14.5934 7.13287 16.758 6.91413C18.0673 6.79275 19.3874 6.95454 20.6286 7.38851C22.4087 8.01374 24.3486 8.01374 26.1286 7.38851C27.8536 6.79561 29.7148 6.72257 31.481 7.17848C33.2472 7.63438 34.8405 8.59913 36.063 9.95288C36.1595 10.0597 36.2201 10.1942 36.2361 10.3372C36.2522 10.4803 36.2229 10.6248 36.1524 10.7504C35.919 11.176 35.6274 11.5671 35.2861 11.9123C34.964 12.2314 34.6011 12.5065 34.2067 12.7304C34.995 13.1851 35.6495 13.8396 36.1042 14.6279C36.3265 14.2346 36.6018 13.8737 36.9224 13.5554C36.9714 13.5034 37.0243 13.4551 37.0805 13.411C37.1692 13.3403 37.2739 13.2926 37.3855 13.2722C37.4971 13.2519 37.6119 13.2594 37.7199 13.2941C37.8283 13.3285 37.9265 13.3891 38.0056 13.4707C38.0848 13.5523 38.1425 13.6523 38.1736 13.7616C38.5747 15.2038 38.6198 16.7217 38.3048 18.1851C37.9899 19.6484 37.3244 21.0135 36.3655 22.1629C35.198 23.6243 34.4072 25.35 34.0624 27.1885C33.5949 29.4779 32.9967 32.3173 32.6049 34.2766C32.4412 35.0834 32.0031 35.8085 31.3651 36.3286C30.7271 36.8488 29.9287 37.1319 29.1055 37.1298ZM23.3717 27.1404C23.9149 27.134 24.4439 27.3131 24.8714 27.6481C25.299 27.9831 25.5994 28.454 25.723 28.9829L26.9674 34.0773C27.0864 34.5616 27.3665 34.9911 27.7618 35.2954C28.157 35.5997 28.6439 35.7606 29.1426 35.7518C29.6413 35.743 30.1222 35.565 30.5064 35.247C30.8907 34.929 31.1555 34.4899 31.2574 34.0016C31.663 32.0491 32.2474 29.1891 32.7149 26.9135C33.1109 24.8651 34.0006 22.9442 35.3068 21.3173C36.624 19.7414 37.2751 17.7142 37.1217 15.666C36.9012 16.145 36.7841 16.665 36.778 17.1923C36.778 17.3746 36.7056 17.5495 36.5766 17.6784C36.4477 17.8073 36.2728 17.8798 36.0905 17.8798C35.9082 17.8798 35.7333 17.8073 35.6044 17.6784C35.4754 17.5495 35.403 17.3746 35.403 17.1923C35.4012 16.19 35.0022 15.2292 34.2935 14.5205C33.5848 13.8118 32.624 13.4128 31.6217 13.411C31.4394 13.411 31.2645 13.3386 31.1356 13.2096C31.0067 13.0807 30.9342 12.9058 30.9342 12.7235C30.9342 12.5412 31.0067 12.3663 31.1356 12.2374C31.2645 12.1084 31.4394 12.036 31.6217 12.036C32.6268 12.0367 33.5911 11.6386 34.303 10.9291C34.437 10.7958 34.559 10.6509 34.6674 10.496C33.6153 9.47728 32.3025 8.76876 30.8735 8.44851C29.4445 8.12826 27.9548 8.20871 26.5686 8.68101C24.4979 9.39924 22.2456 9.39924 20.1749 8.68101C19.1185 8.3134 17.9954 8.17741 16.8818 8.28226C15.0273 8.46151 13.2928 9.27946 11.9748 10.5962C10.6567 11.913 9.83714 13.6468 9.65613 15.501C9.55421 16.54 9.65909 17.589 9.96471 18.5872C10.2703 19.5855 10.7706 20.5134 11.4368 21.3173C12.7465 22.9524 13.6363 24.8831 14.0286 26.941C14.4961 29.2373 15.0805 32.0835 15.4861 34.036C15.5619 34.403 15.7301 34.7445 15.9749 35.0282C16.2196 35.312 16.5328 35.5285 16.8846 35.6572C17.2365 35.786 17.6155 35.8228 17.9855 35.764C18.3556 35.7053 18.7045 35.553 18.9993 35.3216C19.3885 35.0186 19.6625 34.5917 19.7761 34.1116L21.0205 29.0173C21.1373 28.482 21.4348 28.0033 21.863 27.6615C22.2911 27.3197 22.8239 27.1357 23.3717 27.1404Z" fill="#FAFAFA"/>
<path d="M23.3774 12.8762C21.0228 12.8323 18.7164 12.2014 16.6674 11.0406C16.5428 10.9361 16.4594 10.7908 16.4318 10.6306C16.4043 10.4704 16.4344 10.3056 16.5168 10.1655C16.5992 10.0253 16.7286 9.91896 16.8821 9.86521C17.0355 9.81146 17.203 9.81382 17.3549 9.87187C19.2013 10.8935 21.2677 11.4525 23.3774 11.5012C25.4776 11.4481 27.5341 10.8892 29.3724 9.87187C29.4489 9.80762 29.5385 9.76083 29.635 9.73475C29.7315 9.70868 29.8325 9.70395 29.9309 9.72089C30.0294 9.73783 30.123 9.77604 30.2052 9.83286C30.2875 9.88967 30.3563 9.96373 30.407 10.0499C30.4576 10.136 30.4889 10.2321 30.4986 10.3316C30.5083 10.4311 30.4963 10.5314 30.4632 10.6257C30.4302 10.7201 30.377 10.806 30.3073 10.8777C30.2376 10.9493 30.1532 11.0049 30.0599 11.0406C28.019 12.197 25.7226 12.8278 23.3774 12.8762Z" fill="#FAFAFA"/>
<path d="M36.0938 17.8789C35.9114 17.8789 35.7365 17.8065 35.6076 17.6775C35.4787 17.5486 35.4062 17.3737 35.4062 17.1914C35.4044 16.1891 35.0055 15.2284 34.2967 14.5197C33.588 13.8109 32.6273 13.412 31.625 13.4102C31.4427 13.4102 31.2678 13.3377 31.1389 13.2088C31.0099 13.0799 30.9375 12.905 30.9375 12.7227C30.9375 12.5403 31.0099 12.3655 31.1389 12.2365C31.2678 12.1076 31.4427 12.0352 31.625 12.0352C32.6301 12.0358 33.5943 11.6377 34.3063 10.9283C34.5575 10.6723 34.7726 10.3831 34.9456 10.0689C35.2495 9.51231 35.4079 8.88803 35.4062 8.25391C35.4062 8.07157 35.4787 7.8967 35.6076 7.76777C35.7365 7.63884 35.9114 7.56641 36.0938 7.56641C36.2761 7.56641 36.451 7.63884 36.5799 7.76777C36.7088 7.8967 36.7812 8.07157 36.7812 8.25391C36.7794 8.75098 36.876 9.24349 37.0654 9.70308C37.2548 10.1627 37.5332 10.5802 37.8847 10.9317C38.2362 11.2832 38.6537 11.5616 39.1133 11.751C39.5729 11.9404 40.0654 12.037 40.5625 12.0352C40.7448 12.0352 40.9197 12.1076 41.0486 12.2365C41.1776 12.3655 41.25 12.5403 41.25 12.7227C41.25 12.905 41.1776 13.0799 41.0486 13.2088C40.9197 13.3377 40.7448 13.4102 40.5625 13.4102C39.6246 13.4072 38.7196 13.7555 38.0256 14.3864L37.9363 14.4758C37.5715 14.8279 37.2813 15.2497 37.0829 15.7163C36.8845 16.1828 36.7819 16.6844 36.7812 17.1914C36.7812 17.3737 36.7088 17.5486 36.5799 17.6775C36.451 17.8065 36.2761 17.8789 36.0938 17.8789ZM34.1963 12.7227C34.9845 13.1774 35.639 13.8319 36.0938 14.6202C36.316 14.2269 36.5913 13.866 36.9119 13.5477L37.0012 13.4583C37.2908 13.1944 37.6091 12.9638 37.95 12.7708C37.1655 12.3165 36.5137 11.6646 36.0594 10.8802C35.8317 11.2699 35.5569 11.6301 35.2412 11.9527C34.9269 12.2525 34.5757 12.5112 34.1963 12.7227Z" fill="#6EE7B7"/>
</svg>
